<?xml version="1.0" standalone="no"?><!DOCTYPE svg PUBLIC "-//W3C//DTD SVG 1.1//EN" "http://www.w3.org/Graphics/SVG/1.1/DTD/svg11.dtd"><svg t="1591264324270" class="icon" viewBox="0 0 1024 1024" version="1.1" xmlns="http://www.w3.org/2000/svg" p-id="2592" xmlns:xlink="http://www.w3.org/1999/xlink" width="200" height="200"><defs><style type="text/css"></style></defs><path d="M512 961.5c-60.6 0-119.4-11.9-174.8-35.3-53.5-22.6-101.5-55-142.7-96.2-41.2-41.2-73.6-89.2-96.2-142.7C74.9 631.9 63 573.1 63 512.5s11.9-119.4 35.3-174.8c22.6-53.5 55-101.5 96.2-142.7 41.2-41.2 89.2-73.6 142.7-96.2C392.6 75.4 451.4 63.5 512 63.5s119.4 11.9 174.8 35.3c53.5 22.6 101.5 55 142.7 96.2 41.2 41.2 73.6 89.2 96.2 142.7 23.4 55.4 35.3 114.2 35.3 174.8s-11.9 119.4-35.3 174.8c-22.6 53.5-55 101.5-96.2 142.7s-89.2 73.6-142.7 96.2c-55.4 23.4-114.2 35.3-174.8 35.3z m0-848c-220 0-399 179-399 399s179 399 399 399 399-179 399-399-179-399-399-399z" fill="#d4237a" p-id="2593"></path><path d="M442.4 670.3s-0.1 0 0 0h-0.1c-6.3-0.1-12.6-2.5-17.4-7.3L297.4 535.7c-4.9-4.9-7.3-11.3-7.3-17.7 0-6.4 2.4-12.8 7.3-17.7 9.8-9.8 25.6-9.8 35.4 0l109.6 109.6L691.2 361c9.8-9.8 25.6-9.8 35.4 0 9.8 9.8 9.8 25.6 0 35.4L460.1 663l-0.3 0.3c-4.8 4.6-10.9 6.9-17.1 7h-0.3c0.1 0 0.1 0 0 0z" fill="#d4237a" p-id="2594"></path></svg>