<?xml version="1.0" standalone="no"?><!DOCTYPE svg PUBLIC "-//W3C//DTD SVG 1.1//EN" "http://www.w3.org/Graphics/SVG/1.1/DTD/svg11.dtd"><svg t="1590489187419" class="icon" viewBox="0 0 1024 1024" version="1.1" xmlns="http://www.w3.org/2000/svg" p-id="1256" xmlns:xlink="http://www.w3.org/1999/xlink" width="200" height="200"><defs><style type="text/css"></style></defs><path d="M514.56 71.68a442.88 442.88 0 1 0 442.88 442.88A443.392 443.392 0 0 0 514.56 71.68z m0 814.32576a371.44576 371.44576 0 1 1 371.44576-371.44576 371.8656 371.8656 0 0 1-371.44576 371.44576z m39.424-605.99808a51.41504 51.41504 0 0 0-72.55552 0.19456L322.78016 439.4496a35.71712 35.71712 0 1 0 50.60096 50.41152L480.256 382.60736v356.16768a35.71712 35.71712 0 1 0 71.43424 0V378.40896L667.56608 493.568a35.71712 35.71712 0 0 0 50.35008-50.688z" fill="#595BB3" p-id="1257"></path></svg>